<?xml version="1.0" encoding="UTF-8" standalone="no"?>
<!-- Generator: Adobe Illustrator 14.0.0, SVG Export Plug-In . SVG Version: 6.00 Build 43363)  -->

<svg
   xmlns:dc="http://purl.org/dc/elements/1.1/"
   xmlns:cc="http://creativecommons.org/ns#"
   xmlns:rdf="http://www.w3.org/1999/02/22-rdf-syntax-ns#"
   xmlns:svg="http://www.w3.org/2000/svg"
   xmlns="http://www.w3.org/2000/svg"
   xmlns:sodipodi="http://sodipodi.sourceforge.net/DTD/sodipodi-0.dtd"
   xmlns:inkscape="http://www.inkscape.org/namespaces/inkscape"
   version="1.1"
   id="Layer_2"
   x="0px"
   y="0px"
   width="224.99969"
   height="79.718048"
   viewBox="0 0 224.99969 79.718048"
   enable-background="new 0 0 300 108"
   xml:space="preserve"
   inkscape:version="0.48.4 r9939"
   sodipodi:docname="reeses.svg"><metadata
   id="metadata3824"><rdf:RDF><cc:Work
       rdf:about=""><dc:format>image/svg+xml</dc:format><dc:type
         rdf:resource="http://purl.org/dc/dcmitype/StillImage" /></cc:Work></rdf:RDF></metadata><defs
   id="defs3822" /><sodipodi:namedview
   pagecolor="#ffffff"
   bordercolor="#666666"
   borderopacity="1"
   objecttolerance="10"
   gridtolerance="10"
   guidetolerance="10"
   inkscape:pageopacity="0"
   inkscape:pageshadow="2"
   inkscape:window-width="640"
   inkscape:window-height="480"
   id="namedview3820"
   showgrid="false"
   fit-margin-top="0"
   fit-margin-left="0"
   fit-margin-right="0"
   fit-margin-bottom="0"
   inkscape:zoom="0.95333333"
   inkscape:cx="148.83011"
   inkscape:cy="52.690391"
   inkscape:window-x="896"
   inkscape:window-y="141"
   inkscape:window-maximized="0"
   inkscape:current-layer="Layer_2" />
<path
   d="m 26.168266,20.086096 -0.0076,0.0099 C 17.271732,29.460826 9.1201307,41.51886 4.352843,52.33714 1.8081675,58.113811 -4.154921,71.649545 4.61504,77.298904 c 4.8324587,3.12439 11.096392,1.47543 16.350184,-4.291391 2.002095,-2.203667 4.196669,-5.418234 6.366993,-8.863927 -0.160652,1.039694 -0.279626,2.058171 -0.279626,3.066796 v 0.08487 c 0.01743,4.562683 1.855082,7.394572 3.398711,8.957902 2.276416,2.32036 5.336392,3.4851 9.091266,3.46463 5.770608,-0.0182 11.493476,-2.74473 15.806845,-5.49477 3.324446,3.4457 8.128866,5.3364 13.872194,5.3364 6.083578,0.004 12.833258,-2.42798 20.093691,-7.195272 2.290056,3.269892 6.836068,7.195272 15.428702,7.195272 4.79836,0.004 10.0567,-1.53151 15.63786,-4.53086 3.01148,2.03847 7.93108,4.54298 14.0139,4.56117 6.1442,0.007 11.67156,-2.26581 15.52192,-6.18891 2.49769,3.00238 6.94291,6.15935 14.64741,6.15935 4.80442,0.004 10.0567,-1.5315 15.63938,-4.53085 3.01147,2.03847 7.92577,4.54298 14.01314,4.56117 12.81507,0.0197 20.61278,-9.239045 20.75146,-18.209064 l 0.005,-0.24401 c 0,-2.798537 -0.71839,-5.774397 -2.18927,-9.079899 -0.46301,-1.035906 -1.06925,-2.093787 -1.71261,-3.215324 -0.0265,-0.05456 -0.0667,-0.118216 -0.10003,-0.172777 0.80705,0.390264 1.66639,0.982102 2.58484,1.799763 l 2.30445,2.035437 9.13825,-13.026495 -3.92993,-4.081484 c -5.08253,-5.272737 -11.77689,-5.647088 -14.42765,-5.566762 -0.0311,0 -0.0644,0.01061 -0.10382,0.01061 0.35237,-1.589096 0.55925,-3.284284 0.56531,-5.092383 l 0.0174,-2.97586 -2.79247,-0.06517 c -13.88963,-0.0341 -14.07528,-0.01364 -14.27989,0.0099 l -2.46662,0.292508 v 2.545434 c 0,1.78688 0,3.805646 -1.81568,6.79742 -0.16747,0.275838 -0.34025,0.535761 -0.51151,0.782803 -2.26505,-1.225355 -4.90142,-1.86266 -7.87349,-1.905097 -2.54316,-0.03562 -8.85938,0.484231 -15.86444,5.455366 -0.0644,-0.07048 -0.27129,-0.28872 -0.27129,-0.28872 -5.08101,-5.272737 -11.78068,-5.647088 -14.42614,-5.566762 -6.20028,0.195512 -12.10881,3.103929 -15.91824,7.520358 -2.75383,-4.511154 -7.47565,-7.039158 -13.33947,-7.120242 -3.39871,-0.04395 -12.13381,0.85934 -20.906042,9.783133 -0.327368,-0.870706 -0.705507,-1.72171 -1.164731,-2.502239 -2.740944,-4.614213 -7.518084,-7.196779 -13.451618,-7.280894 -1.439053,-0.01819 -3.832927,0.141708 -6.774687,0.985891 2.766709,-4.155747 4.18909,-8.70479 4.18909,-13.496328 l -0.01364,-0.832059 C 79.034316,5.3924525 69.409562,0.07879345 60.628992,7.4145095e-4 50.386635,-0.08034255 39.117467,6.4882235 26.168266,20.086096"
   id="path3810"
   inkscape:connector-curvature="0"
   style="fill:#ff7300" />
<path
   d="m 210.30183,45.388869 c 2.00967,0.450888 3.80186,1.782334 5.08026,2.919784 l 5.98582,-8.542622 -2.27718,-2.361289 c -4.31336,-4.476295 -10.07488,-4.793811 -12.3566,-4.718032 -1.47391,0.04395 -2.97283,0.275838 -4.43386,0.67368 0.26144,-0.497113 0.50166,-0.980587 0.70854,-1.467091 1.42238,-3.40553 1.30568,-6.908817 1.31781,-7.332424 0,0 -13.72367,-0.0341 -13.95783,-0.0083 0,2.075601 -0.0439,4.702876 -2.24383,8.308464 -0.74037,1.214746 -1.53832,2.224128 -2.0559,2.767467 l -0.24856,0.269775 c -1.8869,-1.547417 -4.58465,-2.765193 -8.47745,-2.809145 -2.68941,-0.03637 -9.11248,0.587291 -16.10769,6.357141 l -1.97102,-2.041499 c -4.3111,-4.479326 -10.07716,-4.793811 -12.35661,-4.718032 -6.79742,0.210667 -13.98207,4.291393 -16.59192,10.903912 -0.31145,-1.597432 -0.82675,-3.160763 -1.67548,-4.596026 -1.57394,-2.64622 -4.77866,-5.827444 -11.1214,-5.904739 -3.11378,-0.04168 -11.24644,0.801747 -19.461687,9.510327 -1.077585,1.139724 -2.045289,2.361289 -2.959947,3.61544 -0.111396,-2.488599 -0.669891,-5.00372 -1.980119,-7.220271 -1.576971,-2.64622 -4.781686,-5.827443 -11.118367,-5.904738 -3.110749,-0.04168 -11.248709,0.801747 -19.466995,9.510327 -3.660149,3.87991 -6.486725,8.591879 -7.964425,13.285661 -0.137919,0.421334 -0.373593,1.488309 -0.550159,2.243073 -1.314774,0.926025 -3.541176,2.09985 -4.0345,1.727772 -0.292509,-0.225822 -0.258408,-0.864644 0.04698,-1.936166 0.484989,-1.722468 1.129872,-3.626806 1.727015,-5.222722 2.057413,-5.531146 1.086678,-7.996253 0.07729,-8.884388 3.046335,-0.901776 7.960636,-2.321884 13.267474,-6.201794 7.583254,-5.550848 11.569255,-12.422533 11.569255,-19.895149 0,-0.244768 -0.0038,-0.491809 -0.01212,-0.735819 C 76.316863,7.3096735 68.350923,2.9212825 60.609289,2.8561125 51.16186,2.7803325 40.550457,9.0677575 28.159752,22.083643 19.481484,31.232502 11.53373,42.980597 6.8884469,53.513189 4.4528939,59.042061 -0.62130115,70.557513 6.09352,74.883004 c 3.6305957,2.34689 8.55399,0.8798 12.837805,-3.827619 3.062249,-3.367641 6.757257,-9.503507 10.01426,-14.921741 1.443599,-2.400694 2.801568,-4.673321 3.871574,-6.280605 0.674438,-1.006351 1.425413,-1.714132 2.249894,-2.143801 1.573182,-0.822966 1.762631,-0.168231 0.52894,2.355984 l -0.278868,0.576682 c -2.445404,5.012056 -5.481889,11.239615 -5.481889,16.567671 0,0.01288 0,0.03107 0,0.0485 0.01288,3.609377 1.409499,5.786519 2.573472,6.973229 1.73535,1.76339 4.129225,2.65077 7.127819,2.63485 6.117679,-0.0296 12.374034,-3.59346 16.352458,-6.401091 2.324157,3.465391 6.564019,6.233621 13.334917,6.233621 7.548396,0.008 15.324888,-4.293666 21.026537,-8.399399 0.124278,0.287205 0.235674,0.583502 0.382686,0.863887 1.460271,2.815208 5.236364,7.535512 14.107865,7.535512 4.77714,0.002 10.09231,-1.67776 15.83943,-5.015086 2.92206,2.277176 7.86894,5.031756 13.82673,5.044636 7.44912,0.0144 12.93556,-3.50934 15.77577,-8.122042 0.0856,0.184902 0.17051,0.372835 0.27129,0.556222 1.45421,2.815208 5.23182,7.53551 14.11242,7.53551 4.76729,0.002 10.08852,-1.67776 15.83185,-5.015084 2.92509,2.277174 7.87122,5.031754 13.829,5.044644 11.0926,0.0182 17.84759,-7.812111 17.95823,-15.384756 0,-0.06669 0,-0.135646 0,-0.207636 0,-2.380992 -0.63049,-4.965073 -1.93314,-7.893192 -0.3986,-0.898745 -0.96998,-1.892972 -1.57545,-2.957674 -0.48348,-0.838121 -1.07532,-1.882363 -1.29886,-2.407515 -0.76462,-1.886151 0.22733,-3.088772 2.92357,-2.487841 M 57.712997,21.472103 c -2.272627,3.803373 -7.74618,8.480483 -15.246834,11.016065 5.331845,-8.204646 11.07972,-14.56103 14.808829,-15.674231 2.5568,-0.772951 2.298392,1.536051 0.438005,4.658166 z m 21.869205,23.775059 c 0.110638,0.603962 -0.07729,1.627743 -0.425881,2.674258 -0.735061,0 -2.040742,0.01819 -2.994806,0.01819 0.854793,-1.743686 3.063007,-4.339134 3.420687,-2.692445 z m 1.282946,15.814423 c -3.466154,1.85584 -5.889582,2.645462 -7.474889,2.658344 -2.452982,0.02955 -2.482536,-2.262775 -1.66336,-5.27501 2.857645,0 8.468359,0 13.331887,0 -1.473154,1.045757 -2.873559,1.908127 -4.193638,2.616666 z M 115.26222,45.247162 c 0.11973,0.603962 -0.0788,1.627743 -0.42967,2.674258 -0.73052,0 -2.0362,0.01819 -2.98647,0.01819 0.85934,-1.743686 3.05997,-4.339134 3.41614,-2.692445 z m 1.11168,15.814423 c -3.46615,1.85584 -5.88882,2.645462 -7.47413,2.658344 -2.45374,0.02955 -2.48784,-2.262775 -1.66336,-5.27501 2.86143,0 8.4676,0 13.32128,0 -1.46785,1.045757 -2.86523,1.908127 -4.18379,2.616666 z m 17.90215,2.402967 c -0.56001,0.797959 -2.40979,0.547128 -4.09285,-0.1993 -1.46633,-0.655492 -2.82733,-1.967235 -3.73441,-2.957673 0.54333,-0.804021 2.07938,-2.870528 3.40325,-7.180865 0.69414,2.509817 1.9589,4.698328 3.33051,6.864864 1.04727,1.646689 1.49892,2.900081 1.0935,3.472974 z m 16.38656,-9.677041 c -0.0728,-0.183386 -0.14474,-0.36071 -0.23189,-0.545612 -0.40011,-0.898745 -0.96846,-1.892972 -1.57697,-2.957674 -0.4812,-0.838121 -1.07834,-1.882363 -1.29204,-2.407515 -0.29705,-0.728998 -0.33949,-1.217018 -0.33949,-1.429959 0,0 0,-0.0068 0,-0.0144 0.022,-0.396327 0.0879,-1.197316 1.85129,-1.202621 1.85508,-0.0045 3.96933,1.415561 4.90218,2.289299 -1.33524,2.01725 -2.45753,4.13074 -3.31308,6.26848 z m 24.37296,-8.540349 c 0.1167,0.603962 -0.0727,1.627743 -0.42967,2.674258 -0.72521,0 -2.03696,0.01819 -2.98875,0.01819 0.86389,-1.743686 3.06453,-4.339134 3.41842,-2.692445 z m 1.1132,15.814423 c -3.46691,1.85584 -5.88883,2.645462 -7.47565,2.658344 -2.45147,0.02955 -2.48632,-2.262775 -1.66109,-5.27501 2.85992,0 8.46685,0 13.32052,0 -1.4686,1.045757 -2.86598,1.908127 -4.18378,2.616666 z m 17.90593,2.402967 c -0.56228,0.797959 -2.41433,0.547128 -4.09663,-0.1993 -1.46634,-0.655492 -2.83264,-1.967235 -3.73821,-2.957673 0.5441,-0.804021 2.07788,-2.870528 3.40629,-7.180865 0.69945,2.509817 1.9589,4.698328 3.33051,6.864864 1.03818,1.646689 1.49892,2.900081 1.09804,3.472974 z"
   id="path3812"
   inkscape:connector-curvature="0"
   style="fill:#562300" />
<path
   d="m 200.014,28.461246 c 0,0 -6.19497,0 -6.20634,0 -0.47817,4.555105 -3.95417,8.836647 -4.99917,9.924082 0.48499,0.666102 0.92678,1.523926 0.92678,1.523926 5.59859,-2.707601 9.83846,-7.9523 10.27873,-11.448008"
   id="path3814"
   inkscape:connector-curvature="0"
   style="fill:#fff200" />
<path
   d="m 149.05684,41.296019 c 2.19457,-0.0061 4.04663,0.968462 5.29774,1.985423 0.005,0 2.18245,-3.108475 2.18245,-3.108475 -3.32672,-3.455545 -7.99246,-3.599526 -9.50881,-3.554816 -6.82546,0.215213 -13.99117,5.259097 -13.91614,12.536959 0.0318,3.046336 1.21247,5.408383 3.28807,8.697213 0.90177,1.414803 1.64517,2.91069 1.88767,4.544496 0.34252,2.23398 -0.44786,5.112843 -5.28183,5.169678 -5.82972,0.07123 -9.07839,-4.263355 -10.61292,-5.979003 -4.53541,2.947823 -10.26282,5.954753 -14.47692,5.806225 -5.89034,-0.204604 -6.03659,-5.731961 -3.41614,-12.633957 h 20.68174 c 2.61818,-5.359884 3.43888,-17.58539 -7.70071,-17.73316 -4.46569,-0.05987 -10.7766,2.064991 -16.66315,8.305433 -2.985712,3.169856 -5.390954,6.975502 -6.78757,10.905427 -0.03865,0.04168 -0.07351,0.08108 -0.08563,0.109122 -0.01364,0.02728 -0.02652,0.06062 -0.03865,0.09018 -2.239282,1.89979 -14.174553,11.21991 -21.506977,10.957713 C 66.504176,67.189872 66.35868,61.662516 68.974588,54.76052 h 20.686287 c 2.612119,-5.359884 3.437357,-17.58539 -7.71208,-17.73316 -4.455076,-0.05987 -10.765993,2.064991 -16.651786,8.305433 -3.21002,3.402499 -5.745601,7.53627 -7.080836,11.768555 -0.22355,0.696414 -0.691867,2.831122 -0.739608,3.219871 -2.847036,1.836137 -7.024001,3.97615 -9.00412,3.904917 -2.083936,-0.07881 -3.247909,-1.449661 -2.981165,-3.538902 0.331156,-2.703812 1.756569,-6.911848 2.680321,-9.393626 C 50.194913,45.849609 47.22663,43.123063 45.070704,41.960605 55.037223,40.467749 73.322058,31.592454 72.828733,17.12236 72.527888,8.8275365 65.047694,6.8337785 60.575189,6.7974045 52.176547,6.7261715 42.441155,12.717298 30.908274,24.838228 21.829133,34.400085 14.514896,45.769282 10.391733,55.13487 8.1721515,60.163598 4.4756277,69.188178 8.1365352,71.555529 c 2.3612898,1.518625 5.6804308,-0.647157 7.9841278,-3.181981 4.143623,-4.549043 10.065033,-15.511305 13.522093,-20.727965 2.248378,-3.380523 5.110569,-4.439921 7.537029,-4.399758 3.009204,0.04926 4.769561,2.574988 1.852809,8.583544 -2.258987,4.639978 -5.372009,10.823585 -5.356853,15.415823 0.003,2.099849 0.662313,5.706953 5.83881,5.684219 6.705728,-0.03562 14.783064,-5.756968 18.005208,-8.70479 h 0.0083 c 0.44331,3.545722 3.329751,8.542622 11.690503,8.542622 8.674479,0.0061 18.229515,-6.84213 23.591672,-11.446492 0,0.03486 0.01667,0.109122 0.0341,0.1993 -0.117458,1.925557 0.179598,3.870816 1.172309,5.793342 1.456482,2.811419 4.643767,5.454608 10.724307,5.454608 5.50311,0.0061 11.35101,-2.747764 16.27062,-5.934292 1.37464,1.655782 6.78378,5.947175 13.40084,5.960815 8.85938,0.01743 14.03512,-5.868364 14.12378,-11.513179 0.0265,-2.124099 -0.7002,-4.391422 -1.59364,-6.402609 -0.67898,-1.510286 -2.32946,-4.017071 -2.92054,-5.477342 -0.47135,-1.153364 -0.6608,-2.225644 -0.63503,-3.125904 0.16444,-3.481311 2.86143,-4.965831 5.66982,-4.979471 m -36.03315,0.551675 c 1.7452,-1.188981 4.16408,-1.536809 5.22424,0.131098 1.68458,2.645462 0.438,6.5572 -0.33949,9.090508 h -11.84889 c 1.86418,-4.057234 4.50282,-7.555973 6.96414,-9.221606 z m -35.525422,0 c 1.753538,-1.188981 4.17242,-1.536809 5.228786,0.131098 1.68382,2.645462 0.438005,6.5572 -0.334188,9.090508 H 70.543223 c 1.85584,-4.057234 4.496756,-7.555973 6.955042,-9.221606 z M 35.471678,37.10996 c 4.15499,-7.559005 14.005566,-23.494675 22.620179,-24.392662 5.068891,-0.520605 6.534466,3.943565 4.004189,8.924551 -2.272627,4.481599 -6.341228,8.183428 -11.698081,11.096391 -7.080836,3.849599 -14.47843,4.43689 -14.926287,4.37172 z"
   id="path3816"
   inkscape:connector-curvature="0"
   style="fill:#fff200" />
<path
   d="m 206.84931,36.615877 c -6.82167,0.215972 -13.99344,5.261371 -13.91387,12.537718 0.0356,3.046335 1.21247,5.406867 3.28201,8.694939 0.91011,1.41935 1.65124,2.912206 1.88843,4.549043 0.33949,2.229433 -0.45013,5.109812 -5.2788,5.165888 -5.82972,0.07502 -9.07839,-4.261838 -10.61292,-5.975213 -4.53995,2.946307 -10.2613,5.951722 -14.47237,5.803194 -5.89489,-0.205362 -6.04417,-5.731203 -3.41993,-12.632442 h 20.68705 c 2.60908,-5.360641 3.42674,-17.586905 -7.71057,-17.735433 -4.45886,-0.05987 -10.76902,2.065749 -16.65936,8.308464 -3.21381,3.402499 -5.74333,7.530966 -7.07553,11.765524 -1.05561,3.301713 -1.4921,6.798179 0.28417,10.214318 1.44587,2.809146 4.63316,5.449304 10.71901,5.449304 5.49477,0.0091 11.34874,-2.744733 16.26379,-5.932777 1.3754,1.658813 6.78454,5.950964 13.40161,5.960058 8.86847,0.01743 14.0336,-5.865333 14.11923,-11.512421 0.0288,-2.122584 -0.69717,-4.389149 -1.59212,-6.398821 -0.6752,-1.514074 -2.31886,-4.017071 -2.91979,-5.478857 -0.47059,-1.151849 -0.65701,-2.223371 -0.63276,-3.123631 0.15838,-3.483584 2.86447,-4.965073 5.67437,-4.982502 2.19155,-0.0045 4.04739,0.972251 5.29017,1.985423 0.0129,0 2.18624,-3.106202 2.18624,-3.106202 -3.32975,-3.45706 -7.99171,-3.599526 -9.50806,-3.555574 m -34.00453,5.22727 c 1.75278,-1.189738 4.16787,-1.532262 5.22576,0.13413 1.69291,2.644704 0.43649,6.556441 -0.33495,9.087477 h -11.84888 c 1.85508,-4.054203 4.5013,-7.556732 6.95807,-9.221607 z"
   id="path3818"
   inkscape:connector-curvature="0"
   style="fill:#fff200" />
</svg>